<?xml version="1.0" standalone="no"?>
<!DOCTYPE svg PUBLIC "-//W3C//DTD SVG 20010904//EN"
 "http://www.w3.org/TR/2001/REC-SVG-20010904/DTD/svg10.dtd">
<svg version="1.0" xmlns="http://www.w3.org/2000/svg"
 width="736.000000pt" height="992.000000pt" viewBox="0 0 736.000000 992.000000"
 preserveAspectRatio="xMidYMid meet">
<metadata>
Created by potrace 1.16, written by Peter Selinger 2001-2019
</metadata>
<g transform="translate(0.000000,992.000000) scale(0.100000,-0.100000)"
fill="#000000" stroke="none">
<path d="M2866 9449 c-35 -28 -34 -67 4 -148 133 -281 768 -990 1116 -1245 29
-22 52 -41 51 -43 -2 -1 -23 -5 -48 -8 -443 -52 -873 -198 -1166 -395 l-71
-49 -59 14 c-100 23 -283 53 -423 70 -143 16 -502 35 -585 29 -28 -1 -115 -5
-195 -9 -439 -19 -924 -125 -1242 -273 -131 -61 -135 -85 -27 -166 247 -186
746 -352 1304 -436 261 -39 406 -51 673 -57 l273 -6 -6 -61 c-4 -34 -11 -103
-16 -154 -6 -51 -14 -182 -18 -292 -4 -110 -10 -203 -13 -206 -4 -3 -53 22
-111 55 -565 326 -1320 622 -1903 746 -177 37 -236 42 -259 19 -16 -17 -17
-31 -11 -174 3 -85 8 -171 11 -190 2 -19 11 -93 20 -165 50 -395 201 -1171
239 -1219 7 -9 81 -29 191 -51 171 -35 494 -105 889 -194 99 -22 185 -46 191
-53 7 -7 39 -59 73 -114 l61 -102 -200 -543 c-131 -355 -198 -551 -195 -566 4
-12 15 -24 26 -28 17 -6 380 16 522 31 l57 6 -30 -91 c-16 -50 -56 -173 -88
-273 -63 -189 -64 -209 -21 -223 14 -4 36 3 69 24 50 33 70 39 54 19 -18 -23
-120 -272 -152 -368 -53 -164 -64 -226 -66 -372 l-3 -136 -59 -84 c-117 -161
-265 -425 -337 -596 -36 -86 -46 -164 -28 -222 22 -67 38 -79 112 -84 55 -4
74 -1 119 21 85 41 290 246 449 450 l33 43 59 -40 c134 -91 300 -158 484 -195
174 -35 279 -40 411 -21 267 39 473 48 612 26 37 -6 151 -36 253 -66 102 -31
212 -64 245 -74 126 -37 382 -80 482 -80 38 0 43 -3 43 -22 0 -53 30 -351 44
-443 16 -101 48 -230 67 -269 19 -37 112 -116 136 -116 33 0 164 132 197 199
75 147 136 512 136 819 0 81 1 84 39 135 124 167 203 402 216 647 3 58 10 215
15 350 13 304 35 645 60 944 l20 229 143 146 c411 419 847 978 1065 1364 38
67 119 217 180 333 60 116 132 247 160 290 27 44 53 89 56 100 10 32 -9 69
-42 83 l-29 12 15 65 c14 64 14 66 -9 90 -19 21 -30 24 -56 19 -32 -6 -33 -5
-33 30 0 49 -31 79 -75 72 -31 -5 -34 -3 -40 23 -8 36 -42 80 -61 80 -8 0 -28
-7 -45 -15 -27 -15 -31 -14 -58 6 -26 19 -30 20 -57 6 -16 -9 -54 -44 -86 -80
-44 -50 -80 -77 -169 -126 -62 -35 -172 -102 -246 -149 -74 -46 -135 -83 -137
-81 -2 2 -13 49 -25 105 -12 55 -62 238 -111 405 -50 167 -115 401 -145 519
-29 118 -65 245 -79 283 -58 153 -147 302 -251 422 -28 33 -72 99 -97 147
-254 480 -682 920 -1209 1243 -515 315 -1166 546 -1283 454z m717 -250 c252
-110 555 -282 762 -432 236 -172 488 -410 644 -607 81 -103 201 -278 256 -372
l27 -48 -31 6 c-24 5 -31 3 -31 -9 0 -9 7 -20 15 -25 34 -19 172 -162 226
-234 123 -166 180 -299 253 -594 30 -120 82 -309 115 -419 32 -110 61 -208 63
-218 2 -13 -13 -26 -57 -50 -138 -74 -217 -251 -200 -450 15 -180 94 -310 218
-361 l56 -23 -35 -73 c-153 -319 -423 -582 -890 -866 -14 -9 -16 -15 -8 -24 9
-9 28 -5 80 15 251 99 600 404 780 680 124 192 190 365 217 572 l12 88 125 83
c151 101 330 208 386 232 24 11 62 42 94 79 29 34 55 59 58 56 3 -3 13 -40 22
-82 9 -42 22 -79 28 -81 18 -6 34 48 29 96 -4 35 -1 45 16 57 31 22 34 20 41
-35 8 -57 23 -69 67 -53 32 12 32 12 29 -48 -2 -50 20 -70 62 -58 17 5 33 7
36 5 2 -2 -4 -41 -14 -85 -21 -96 -14 -113 36 -94 17 6 30 10 30 8 0 -2 -22
-39 -48 -82 -27 -43 -105 -187 -175 -320 -69 -133 -154 -288 -188 -345 -158
-264 -408 -601 -692 -932 -113 -132 -398 -436 -409 -436 -5 0 -7 12 -4 28 3
15 8 59 11 97 4 39 15 147 25 240 26 233 28 267 12 272 -44 16 -87 -271 -146
-982 -42 -499 -54 -693 -61 -988 -10 -368 -30 -517 -92 -682 -121 -323 -349
-486 -683 -488 -182 -2 -370 35 -701 137 -280 86 -309 91 -509 90 -115 0 -214
-7 -290 -19 -186 -29 -357 -31 -488 -6 -271 52 -479 155 -627 312 -132 140
-192 335 -166 538 26 204 76 344 256 721 200 419 261 552 300 655 20 55 39
102 40 104 2 2 15 -10 29 -25 19 -23 27 -26 37 -17 27 27 -13 86 -339 500
-366 466 -466 629 -679 1108 -24 55 -48 109 -53 120 -5 11 -30 71 -55 134 -25
63 -59 132 -75 154 -37 51 -38 65 -2 69 l27 3 -2 83 -1 83 46 -3 47 -3 19 60
c10 33 20 62 22 64 2 2 23 -4 47 -13 64 -24 75 -21 88 25 7 23 18 43 25 46 7
2 30 -5 53 -16 l40 -21 -14 -47 c-20 -64 -19 -83 3 -83 11 1 28 24 50 73 l34
72 19 -37 c24 -46 39 -58 228 -175 179 -112 344 -224 383 -260 19 -18 29 -40
33 -72 10 -76 55 -250 87 -336 36 -99 115 -248 176 -334 63 -88 199 -230 296
-307 73 -59 219 -144 245 -144 29 0 5 32 -51 71 -92 62 -211 165 -313 271
-239 246 -358 537 -396 962 -15 165 -5 597 19 825 20 188 8 172 139 190 81 10
123 24 123 40 0 4 -177 7 -392 7 -260 -1 -435 3 -518 12 -195 21 -406 50 -539
76 -110 21 -125 26 -157 57 -87 84 -194 273 -238 419 -38 131 -38 133 9 142
253 44 484 65 760 67 420 3 779 -44 1179 -155 152 -42 176 -45 176 -23 0 12
-105 60 -184 85 -31 10 -56 20 -56 24 0 9 128 85 227 134 242 120 518 206 813
253 90 14 173 18 385 18 298 0 361 -8 645 -79 82 -21 139 -31 145 -25 14 14
-4 27 -86 60 -160 66 -455 119 -660 119 -81 0 -89 2 -147 38 -145 87 -344 255
-533 448 l-125 129 -19 85 c-34 151 -22 530 17 530 5 0 42 -14 81 -31z m-3157
-2474 c615 -139 1342 -432 1915 -771 l107 -63 4 -83 c2 -46 3 -85 2 -87 -2 -2
-34 19 -71 47 -37 27 -149 100 -248 162 -215 133 -241 153 -251 182 -20 67
-68 96 -105 63 -15 -15 -22 -13 -78 15 -34 18 -68 29 -76 26 -13 -5 -50 -55
-58 -79 -1 -5 -22 -4 -45 3 -24 6 -51 8 -61 5 -17 -5 -42 -50 -56 -102 -5 -18
-14 -23 -41 -23 -65 0 -74 -12 -74 -95 0 -73 0 -73 -29 -80 -49 -10 -55 -27
-30 -77 12 -24 32 -58 46 -76 14 -18 43 -79 65 -135 53 -137 125 -299 219
-496 44 -90 78 -166 76 -167 -2 -2 -99 19 -217 47 -207 48 -742 163 -884 191
l-69 13 -23 95 c-52 209 -149 721 -183 965 -18 128 -39 342 -46 454 l-7 104
54 -6 c30 -4 103 -18 164 -32z m5498 -617 c74 -261 79 -402 19 -615 -14 -50
-16 -53 -47 -53 -41 0 -91 33 -133 88 -98 129 -99 387 -1 530 29 42 108 102
134 102 7 0 19 -24 28 -52z m-3953 -1720 c51 -68 115 -150 141 -182 26 -33 48
-64 48 -68 0 -4 -43 -72 -95 -150 -53 -78 -94 -149 -93 -158 4 -21 69 -28 266
-29 127 -1 162 -4 162 -14 0 -23 -56 -180 -101 -282 l-44 -99 -11 39 c-15 54
-46 60 -70 13 -16 -31 -17 -32 -25 -10 -5 12 -15 22 -22 22 -10 0 -13 13 -13
43 l1 42 -55 -2 c-30 -1 -165 -9 -298 -18 -134 -9 -246 -15 -247 -13 -4 4 14
54 219 608 62 168 119 322 125 343 7 20 14 37 16 37 2 0 45 -55 96 -122z m340
-465 l30 -43 -63 1 c-35 1 -89 4 -120 8 l-58 6 52 79 52 79 38 -44 c21 -24 52
-63 69 -86z m-207 -621 c14 -23 36 -12 63 31 l27 42 7 -34 c6 -29 0 -49 -38
-125 -43 -86 -50 -94 -121 -143 -42 -29 -77 -51 -79 -49 -3 3 89 286 110 336
10 25 10 25 17 -10 3 -20 10 -41 14 -48z m-249 -1409 c30 -75 77 -150 129
-204 34 -35 34 -37 18 -60 -83 -123 -325 -387 -402 -440 -31 -21 -29 -16 28
58 91 120 135 210 98 201 -7 -2 -61 -59 -118 -128 -108 -129 -145 -167 -153
-159 -7 7 30 73 88 159 104 153 117 174 108 183 -5 5 -18 4 -30 -2 -20 -11
-117 -119 -153 -171 -33 -47 19 78 84 200 99 188 250 429 269 430 4 0 19 -30
34 -67z m3305 -615 c0 -148 -41 -458 -80 -615 -39 -154 -46 -161 -42 -40 3 79
0 106 -11 122 -9 11 -18 17 -21 14 -4 -3 -13 -48 -21 -100 -23 -144 -45 -236
-61 -256 -14 -16 -15 1 -9 155 6 154 5 172 -10 172 -26 0 -46 -66 -52 -167 -3
-52 -9 -96 -13 -98 -18 -11 -60 220 -79 445 -6 69 -14 151 -17 182 -5 54 -3
58 18 62 153 30 263 73 343 134 22 17 43 31 48 31 4 1 7 -18 7 -41z"/>
<path d="M5157 7083 c-59 -20 -140 -91 -169 -147 -32 -60 -46 -139 -36 -208
33 -245 315 -363 493 -206 57 51 88 98 109 168 21 70 20 104 -4 183 -52 167
-235 265 -393 210z m119 -127 c30 -30 34 -40 34 -86 0 -43 -4 -56 -29 -80 -78
-78 -201 -27 -201 83 0 49 13 73 53 97 51 32 103 26 143 -14z"/>
<path d="M3232 6799 c-64 -25 -139 -97 -172 -164 -21 -42 -25 -65 -25 -140 0
-75 4 -98 25 -140 35 -72 105 -138 173 -164 175 -65 350 33 403 227 15 53 16
72 6 123 -21 115 -86 205 -180 251 -64 31 -163 34 -230 7z m212 -89 c40 -36
52 -76 36 -123 -32 -99 -169 -116 -215 -27 -62 119 79 237 179 150z"/>
<path d="M4421 6537 c-19 -7 -39 -20 -45 -30 -9 -15 -5 -23 22 -48 47 -42 90
-40 131 6 34 39 38 54 19 73 -15 15 -82 15 -127 -1z"/>
<path d="M4409 6236 c-56 -21 -113 -52 -284 -152 -168 -98 -229 -120 -300
-109 -66 10 -138 36 -172 61 -37 28 -53 30 -53 8 0 -35 126 -124 174 -124 23
0 25 -9 35 -147 17 -218 72 -456 148 -631 55 -131 99 -200 174 -275 86 -86
153 -118 248 -120 150 -2 270 104 382 338 110 229 169 451 244 912 4 24 16 37
49 57 69 41 145 136 107 136 -4 0 -38 -20 -75 -45 -37 -24 -86 -50 -109 -56
-46 -12 -33 -17 -302 102 -131 58 -201 70 -266 45z m132 -59 c106 -32 167 -68
207 -121 84 -111 142 -242 142 -320 0 -51 -47 -246 -96 -397 -83 -259 -202
-451 -313 -506 -24 -12 -58 -18 -106 -18 -58 0 -78 5 -116 27 -172 101 -310
399 -369 793 -11 72 -20 162 -20 201 l0 71 42 7 c59 10 108 33 264 126 117 70
217 122 274 143 25 9 45 8 91 -6z m372 -154 c28 -6 28 -6 21 -62 -6 -54 -11
-69 -17 -60 -2 2 -20 35 -41 73 -35 65 -36 68 -14 62 13 -4 36 -9 51 -13z"/>
<path d="M2861 5794 c-180 -65 -283 -256 -238 -441 69 -282 405 -376 597 -166
69 75 94 144 95 258 0 82 -3 97 -32 155 -39 79 -99 142 -169 176 -69 34 -188
42 -253 18z m216 -70 c45 -19 109 -78 138 -128 47 -81 51 -194 11 -290 -40
-96 -152 -169 -261 -169 -113 0 -204 60 -256 168 -52 108 -36 248 37 334 41
48 111 91 163 102 45 9 124 1 168 -17z"/>
</g>
</svg>
